<?xml version="1.0" standalone="no"?>
<!DOCTYPE svg PUBLIC "-//W3C//DTD SVG 20010904//EN"
 "http://www.w3.org/TR/2001/REC-SVG-20010904/DTD/svg10.dtd">
<svg version="1.0" xmlns="http://www.w3.org/2000/svg"
 width="63.000000pt" height="61.000000pt" viewBox="0 0 63.000000 61.000000"
 preserveAspectRatio="xMidYMid meet">

<g transform="translate(0.000000,61.000000) scale(0.100000,-0.100000)"
fill="#000000" stroke="none">
<path d="M0 305 l0 -305 315 0 315 0 0 305 0 305 -315 0 -315 0 0 -305z m229
75 c52 -88 97 -157 101 -155 4 3 47 73 96 155 48 83 91 153 96 156 13 8 16
-10 38 -221 26 -258 28 -235 -19 -235 -46 0 -46 1 -56 133 -9 104 -6 105 -88
-35 -32 -53 -62 -100 -67 -103 -5 -3 -40 47 -77 110 -77 132 -75 132 -90 -20
l-8 -80 -34 -3 c-18 -2 -37 0 -41 5 -6 6 31 428 39 451 5 14 31 -22 110 -158z"/>
</g>
</svg>
